<?xml version="1.0" standalone="no"?>
<!DOCTYPE svg PUBLIC "-//W3C//DTD SVG 20010904//EN"
 "http://www.w3.org/TR/2001/REC-SVG-20010904/DTD/svg10.dtd">
<svg version="1.0" xmlns="http://www.w3.org/2000/svg" viewBox="0 0 3927.000000 3927.000000"
 preserveAspectRatio="xMidYMid meet">
<g transform="translate(0.000000,3927.000000) scale(0.100000,-0.100000)"
fill="#ffffff" stroke="none">
<path d="M21740 38316 c-144 -30 -279 -90 -530 -234 -157 -90 -535 -324 -775
-480 -177 -116 -223 -136 -291 -129 -117 12 -201 80 -449 362 -158 180 -251
262 -351 311 -100 50 -161 56 -318 32 -185 -28 -298 -59 -470 -129 -83 -34
-226 -90 -318 -125 -170 -63 -308 -129 -498 -235 -313 -174 -446 -201 -775
-159 -409 52 -556 37 -789 -81 -233 -118 -745 -419 -1076 -632 -351 -226 -522
-363 -570 -457 -12 -24 -33 -84 -46 -134 -14 -49 -39 -116 -56 -149 -63 -118
-238 -279 -488 -450 -206 -140 -377 -232 -870 -470 -207 -99 -290 -152 -570
-360 -498 -371 -972 -790 -1042 -922 -64 -122 -80 -351 -39 -562 119 -615 610
-1417 1571 -2563 328 -392 391 -476 1073 -1428 487 -682 658 -918 1458 -2017
1238 -1701 1527 -2155 2329 -3670 380 -718 410 -767 656 -1075 107 -134 178
-242 200 -302 18 -47 43 -272 44 -381 0 -93 -15 -145 -59 -203 -95 -127 -273
-149 -456 -57 -81 41 -161 110 -264 228 -102 116 -307 329 -711 740 -394 400
-469 482 -626 685 -313 407 -1427 1724 -2024 2395 -108 121 -357 402 -555 624
-737 830 -978 1085 -1526 1616 -144 139 -264 270 -814 885 -285 320 -565 598
-684 680 -124 86 -306 232 -581 464 -904 768 -1311 1077 -1614 1226 -196 97
-262 105 -451 58 -364 -91 -956 -459 -1349 -838 -248 -240 -316 -375 -426
-848 -83 -359 -133 -483 -235 -587 -78 -80 -160 -134 -445 -295 -348 -196
-495 -297 -608 -419 -202 -216 -329 -611 -557 -1731 -37 -179 -77 -372 -91
-429 -53 -224 -121 -343 -379 -656 -190 -232 -276 -357 -366 -540 -134 -271
-166 -409 -179 -795 -13 -370 -26 -444 -115 -625 -101 -207 -208 -305 -560
-513 -306 -181 -474 -312 -613 -477 -109 -130 -163 -217 -317 -515 -307 -596
-352 -723 -343 -974 4 -101 7 -118 39 -191 52 -116 149 -269 369 -580 312
-440 376 -552 524 -913 135 -327 186 -523 186 -709 0 -287 -77 -377 -666 -782
-121 -84 -256 -180 -300 -215 -82 -66 -427 -426 -495 -517 -114 -151 -167
-388 -124 -553 25 -97 70 -192 185 -396 174 -308 219 -439 207 -605 -8 -107
-28 -178 -89 -315 -126 -286 -158 -403 -158 -587 0 -270 113 -554 336 -839 79
-102 143 -160 249 -225 115 -70 156 -108 193 -177 58 -108 66 -165 64 -462 0
-146 -8 -416 -17 -600 -22 -479 -30 -1015 -16 -1190 10 -134 70 -539 91 -621
8 -28 44 -69 154 -176 133 -131 151 -144 252 -195 102 -51 111 -57 134 -104
21 -42 25 -63 25 -141 l0 -92 -87 -173 c-49 -95 -93 -194 -99 -220 -17 -70 -7
-201 21 -288 38 -118 162 -360 357 -695 336 -580 402 -708 473 -926 52 -156
75 -283 99 -550 34 -367 48 -401 255 -604 154 -151 192 -200 223 -285 33 -88
36 -146 18 -297 -34 -276 9 -487 138 -677 98 -145 329 -383 847 -873 360 -341
528 -531 605 -683 46 -91 117 -319 160 -511 20 -89 65 -334 100 -543 35 -210
70 -411 79 -447 76 -331 358 -680 639 -792 135 -54 226 -57 490 -17 247 38
774 155 1037 230 36 10 145 42 243 70 234 67 485 151 579 193 98 45 213 117
668 420 740 493 2948 2020 3485 2410 188 136 576 473 1385 1202 80 72 170 152
200 179 30 27 177 158 325 291 424 380 457 409 685 611 597 527 789 684 1090
889 215 146 1044 696 1238 820 51 33 143 93 205 133 539 350 1160 735 1510
936 366 210 451 250 822 386 1452 532 2809 824 3590 771 208 -14 714 -64 975
-97 751 -93 1216 -230 1743 -511 329 -177 780 -491 1752 -1218 866 -648 2203
-1689 2265 -1763 17 -20 86 -146 152 -279 149 -301 213 -400 338 -525 88 -88
107 -102 211 -151 63 -31 177 -81 254 -112 159 -65 301 -131 361 -169 l40 -25
189 168 c104 93 190 173 192 177 1 5 -26 29 -60 54 -94 69 -305 285 -375 385
-85 120 -147 236 -187 349 -36 100 -65 225 -65 280 0 29 -7 39 -42 66 -64 47
-175 97 -243 109 -33 6 -112 15 -176 20 -70 5 -130 15 -150 25 -19 9 -81 53
-139 98 -790 617 -1585 1252 -2225 1777 -983 807 -1215 1065 -1520 1693 -251
517 -437 1061 -535 1562 -185 948 -111 2017 220 3171 288 1006 948 2493 1563
3520 286 479 528 819 917 1290 86 105 194 242 240 305 205 284 616 777 1980
2375 629 737 873 1008 1820 2020 1300 1391 1797 1894 2275 2305 476 409 925
904 1200 1324 301 459 412 778 481 1371 22 190 25 671 6 855 -41 374 -119 686
-230 905 -164 328 -838 1240 -1371 1855 -153 176 -417 447 -528 542 -109 92
-188 138 -525 307 -320 160 -411 191 -565 191 -101 0 -162 -19 -374 -113 -185
-83 -267 -112 -369 -131 -102 -20 -165 -20 -255 -1 -157 33 -275 119 -426 311
-264 337 -375 440 -644 598 -379 224 -964 439 -1338 491 -56 8 -226 19 -377
24 -665 25 -847 105 -1695 747 -760 575 -1032 771 -1206 870 -228 131 -361
142 -714 58 -414 -98 -536 -114 -739 -95 -169 15 -265 37 -456 103 l-155 53
-160 0 c-224 0 -329 -26 -755 -190 -396 -152 -512 -181 -700 -172 -304 13
-732 165 -1645 584 -137 63 -297 131 -355 151 -99 34 -113 36 -250 38 -94 2
-168 -2 -210 -10z"/>
</g>
</svg>
